<svg xmlns="http://www.w3.org/2000/svg" viewBox="0 0 276.1 40.7"><defs><style>.cls-1{fill:#454e54;}.cls-2{fill:#e53a84;}.cls-3{fill:#38a9d6;}.cls-4{fill:#653274;}.cls-5{fill:#e43982;}</style></defs><title>logo-bdm-media</title><g id="Calque_2" data-name="Calque 2"><g id="Calque_1-2" data-name="Calque 1"><path class="cls-1" d="M86.7,14.6a7.61,7.61,0,0,0,2.9-6.5c0-5.4-3.2-8.1-9.5-8.1H67.7V32.5H81.3c3.3,0,5.9-.8,7.8-2.5A8.9,8.9,0,0,0,92,23C92.1,18.9,90.3,16.1,86.7,14.6Zm-4.6-3a4.25,4.25,0,0,1-2.8.8H74.5V6.1h4.8a4.28,4.28,0,0,1,2.8.7A3,3,0,0,1,83,9.2,3.15,3.15,0,0,1,82.1,11.6Zm-7.6,6.9h6a5.84,5.84,0,0,1,3.5.9,3.51,3.51,0,0,1,1.2,3,3.64,3.64,0,0,1-1.1,3,5.84,5.84,0,0,1-3.5.9h-6l-.1-7.8Z"/><path class="cls-1" d="M116.5,1.9A18.77,18.77,0,0,0,108.2,0H95.9V32.5h12.3a17.27,17.27,0,0,0,8.3-2,14,14,0,0,0,5.7-5.6,17,17,0,0,0,2-8.7,18.32,18.32,0,0,0-2-8.7A14.61,14.61,0,0,0,116.5,1.9Zm-8.3,24.5h-5.5V6.1h5.5a8.14,8.14,0,0,1,6.5,2.6c1.5,1.8,2.2,4.3,2.2,7.5a12,12,0,0,1-2.2,7.5A7.89,7.89,0,0,1,108.2,26.4Z"/><path class="cls-2" d="M204.5,38.3v1.6h-9.1V38.3l2.2-.5v-9c0-2.6-.7-4-2.2-4a4.14,4.14,0,0,0-2,.6,13.3,13.3,0,0,0-1.9,1.4,2,2,0,0,0,.1.7V37.7l2.1.4v1.6h-9.1V38.1l2.2-.5v-9c0-2.6-.7-4-2.2-4a4.14,4.14,0,0,0-2,.6,13.3,13.3,0,0,0-1.9,1.4v11l2,.4v1.6h-9.1V38l2.2-.5V26.7a3.75,3.75,0,0,0-.1-1l-2.5-.3V24l6.5-2.3.5.4.3,2.8a11.14,11.14,0,0,1,2.6-2.4,5.94,5.94,0,0,1,3.1-.8c2.6,0,4.3,1.1,4.9,3.3.5-.6.9-1.1,1.3-1.5a4.51,4.51,0,0,1,1.4-1,4.71,4.71,0,0,1,1.5-.6,9,9,0,0,1,1.8-.2,4.62,4.62,0,0,1,3.8,1.5,7.69,7.69,0,0,1,1.2,4.8v9.5Z"/><path class="cls-2" d="M211.8,31.5a7,7,0,0,0,1.6,4.7,5,5,0,0,0,3.7,1.5,4.21,4.21,0,0,0,2.6-.7,7.33,7.33,0,0,0,1.9-2l1.2.7a6.23,6.23,0,0,1-2.7,3.6,8.88,8.88,0,0,1-4.7,1.2,10.46,10.46,0,0,1-3.6-.6,7.5,7.5,0,0,1-2.8-1.8,8.41,8.41,0,0,1-1.8-2.9,9.7,9.7,0,0,1-.6-3.9,8.73,8.73,0,0,1,.7-3.7,9.72,9.72,0,0,1,1.9-2.9,8.12,8.12,0,0,1,2.9-1.9,8.57,8.57,0,0,1,3.6-.7,7.45,7.45,0,0,1,3.1.6,7.76,7.76,0,0,1,2.4,1.6,9.74,9.74,0,0,1,1.5,2.4,10.07,10.07,0,0,1,.5,3.1,11.08,11.08,0,0,1-.2,1.9H211.8v-.2Zm4.4-1.8a2.57,2.57,0,0,0,1.8-.5,2.65,2.65,0,0,0,.5-1.7,4.33,4.33,0,0,0-.7-2.7,2.42,2.42,0,0,0-1.9-1,3.45,3.45,0,0,0-1.3.3,3.54,3.54,0,0,0-1.2,1,7.68,7.68,0,0,0-1,1.8,10.58,10.58,0,0,0-.6,2.8Z"/><path class="cls-2" d="M244.8,38.3v1.6l-6.6.4-.3-2.1a9.12,9.12,0,0,1-2.3,1.7,6.53,6.53,0,0,1-2.9.6,6.39,6.39,0,0,1-2.8-.6,7.64,7.64,0,0,1-2.3-1.7,9.86,9.86,0,0,1-1.5-2.9,12.16,12.16,0,0,1-.5-4,12.26,12.26,0,0,1,.6-3.9,8.09,8.09,0,0,1,1.6-2.9,8.76,8.76,0,0,1,2.4-1.9,7.31,7.31,0,0,1,3-.6,7.63,7.63,0,0,1,2.7.5,6,6,0,0,1,2.1,1.4V17.4l-2.9-.4V15.6l7.2-1.6.5.3-.1,5.1V37.9Zm-7-12.3a11.91,11.91,0,0,0-1.5-.9,4,4,0,0,0-1.5-.3,2.82,2.82,0,0,0-1.5.4,4.89,4.89,0,0,0-1.3,1.2,5.28,5.28,0,0,0-.9,2,12.31,12.31,0,0,0-.3,2.9,9.11,9.11,0,0,0,1.1,4.9,3.06,3.06,0,0,0,2.7,1.6,4.53,4.53,0,0,0,1.6-.3,6.47,6.47,0,0,0,1.6-.9V26Z"/><path class="cls-2" d="M256.2,38.3v1.6H247V38.3l2.2-.4V28a15.48,15.48,0,0,0-.1-2.1l-2.4-.3V24.2l7-2.3.5.4-.1,5.1V37.9ZM251.6,19a3.23,3.23,0,0,1-2.1-.8,2.58,2.58,0,0,1-.9-2.1,2.88,2.88,0,0,1,.9-2.1,3.16,3.16,0,0,1,4.2,0,2.58,2.58,0,0,1,.9,2.1,2.88,2.88,0,0,1-.9,2.1A3.23,3.23,0,0,1,251.6,19Z"/><path class="cls-2" d="M276.1,37.7a5.25,5.25,0,0,1-1.6,2.1,4.14,4.14,0,0,1-2.3.6,4.27,4.27,0,0,1-2.4-.6,4,4,0,0,1-1.4-1.5A11.8,11.8,0,0,1,266,40a6.09,6.09,0,0,1-2.8.6,5.62,5.62,0,0,1-3.5-1.1,3.82,3.82,0,0,1-1.3-3.2,4.15,4.15,0,0,1,.3-1.6,4.69,4.69,0,0,1,1-1.6,11.55,11.55,0,0,1,2-1.5,27.29,27.29,0,0,1,3.3-1.4,12.13,12.13,0,0,0,1.4-.5c.6-.2,1.1-.3,1.7-.5V28a5.23,5.23,0,0,0-.7-3.2,3,3,0,0,0-2.4-1h-.6a1.27,1.27,0,0,0-.6.1l-.3,2.1a3.4,3.4,0,0,1-.9,2.1,2.13,2.13,0,0,1-1.6.7,2.17,2.17,0,0,1-1.4-.5,2.22,2.22,0,0,1-.8-1.3,4.81,4.81,0,0,1,2.3-3.5,9.72,9.72,0,0,1,5.5-1.4,8.47,8.47,0,0,1,2.9.4,5.61,5.61,0,0,1,2,1.2,5.08,5.08,0,0,1,1.1,2.2,15.86,15.86,0,0,1,.4,3.4v7.4a2,2,0,0,0,.2.9.84.84,0,0,0,.7.4,1.42,1.42,0,0,0,.6-.2l.5-.5.2-.2Zm-7.9-7.1a5,5,0,0,0-1.3.4,10.37,10.37,0,0,0-1,.4,4.26,4.26,0,0,0-2.2,1.5,3.87,3.87,0,0,0-.4,3.3,1.79,1.79,0,0,0,.5.7,2.79,2.79,0,0,0,2,.8,3.59,3.59,0,0,0,1.1-.2,5.62,5.62,0,0,0,1.3-.7Z"/><path class="cls-2" d="M155.6,40.5a.76.76,0,0,1-.2-.5.6.6,0,0,1,.1-.4L176.5,1a1,1,0,0,1,.4-.5.84.84,0,0,1,.7-.2h2.3a.76.76,0,0,1,.5.2.76.76,0,0,1,.2.5.6.6,0,0,1-.1.4L159.5,40a1,1,0,0,1-.4.5.84.84,0,0,1-.7.2h-2.3C155.9,40.7,155.7,40.7,155.6,40.5Z"/><polygon class="cls-1" points="154.1 32.5 154.3 32.5 159.7 22.6 156.6 0 151.1 0 143.8 13.8 136.4 0 130.9 0 126.4 32.5 133.4 32.5 136 12.5 143.8 26.4 151.5 12.5 154.1 32.5"/><polygon class="cls-3" points="59.9 32.5 38.8 0 22 32.5 59.9 32.5"/><polygon class="cls-4" points="28.1 13.6 18.3 32.5 22 32.5 29.9 17.1 28.1 13.6"/><polygon class="cls-5" points="21 0 0 32.5 18.3 32.5 28.1 13.6 21 0"/></g></g></svg>